<mxfile host="app.diagrams.net" modified="2024-01-15T15:46:11.264Z" agent="Mozilla/5.0 (X11; Ubuntu; Linux x86_64; rv:121.0) Gecko/20100101 Firefox/121.0" etag="gElVCO3TwKSUqlBjZ67q" version="22.1.18" type="device">
  <diagram name="Page-1" id="E5AxCyOhZKjhce2MvHdj">
    <mxGraphModel dx="2924" dy="1115" grid="1" gridSize="10" guides="1" tooltips="1" connect="1" arrows="1" fold="1" page="1" pageScale="1" pageWidth="850" pageHeight="1100" math="0" shadow="0">
      <root>
        <mxCell id="0" />
        <mxCell id="1" parent="0" />
        <mxCell id="ir3scniFZbBamXwvJh3l-37" value="&lt;div style=&quot;font-size: 16px;&quot;&gt;&lt;font style=&quot;font-size: 16px;&quot;&gt;&lt;br&gt;&lt;/font&gt;&lt;/div&gt;&lt;div style=&quot;font-size: 16px;&quot;&gt;&lt;font style=&quot;font-size: 16px;&quot;&gt;&lt;br&gt;&lt;/font&gt;&lt;/div&gt;&lt;div style=&quot;font-size: 16px;&quot;&gt;&lt;font style=&quot;font-size: 16px;&quot;&gt;&lt;br&gt;&lt;/font&gt;&lt;/div&gt;&lt;div style=&quot;font-size: 16px;&quot;&gt;&lt;font style=&quot;font-size: 16px;&quot;&gt;&lt;br&gt;&lt;/font&gt;&lt;/div&gt;&lt;div style=&quot;font-size: 16px;&quot;&gt;&lt;font style=&quot;font-size: 16px;&quot;&gt;&lt;br&gt;&lt;/font&gt;&lt;/div&gt;&lt;div style=&quot;font-size: 16px;&quot;&gt;&lt;font style=&quot;font-size: 16px;&quot;&gt;&lt;br&gt;&lt;/font&gt;&lt;/div&gt;&lt;div style=&quot;font-size: 16px;&quot;&gt;&lt;font style=&quot;font-size: 16px;&quot;&gt;&lt;br&gt;&lt;/font&gt;&lt;/div&gt;&lt;div style=&quot;font-size: 16px;&quot;&gt;&lt;font style=&quot;font-size: 16px;&quot;&gt;&lt;br&gt;&lt;/font&gt;&lt;/div&gt;&lt;div style=&quot;font-size: 16px;&quot;&gt;&lt;font style=&quot;font-size: 16px;&quot;&gt;&lt;br&gt;&lt;/font&gt;&lt;/div&gt;&lt;div style=&quot;font-size: 16px;&quot;&gt;&lt;font style=&quot;font-size: 16px;&quot;&gt;&lt;b&gt;packet Forwarder&lt;/b&gt;&lt;/font&gt;&lt;/div&gt;" style="rounded=1;whiteSpace=wrap;html=1;dashed=1;movable=1;resizable=1;rotatable=1;deletable=1;editable=1;locked=0;connectable=1;strokeWidth=2;" parent="1" vertex="1">
          <mxGeometry x="720" y="1090" width="630" height="210" as="geometry" />
        </mxCell>
        <mxCell id="ir3scniFZbBamXwvJh3l-42" value="" style="rounded=1;whiteSpace=wrap;html=1;dashed=1;fillColor=#e1d5e7;strokeColor=#9673a6;movable=1;resizable=1;rotatable=1;deletable=1;editable=1;locked=0;connectable=1;strokeWidth=2;" parent="1" vertex="1">
          <mxGeometry x="1120" y="1105" width="220" height="165" as="geometry" />
        </mxCell>
        <mxCell id="ir3scniFZbBamXwvJh3l-80" style="edgeStyle=orthogonalEdgeStyle;rounded=0;orthogonalLoop=1;jettySize=auto;html=1;exitX=1;exitY=0.5;exitDx=0;exitDy=0;exitPerimeter=0;entryX=0;entryY=0.5;entryDx=0;entryDy=0;" parent="1" source="ir3scniFZbBamXwvJh3l-22" target="ir3scniFZbBamXwvJh3l-77" edge="1">
          <mxGeometry relative="1" as="geometry" />
        </mxCell>
        <mxCell id="ir3scniFZbBamXwvJh3l-22" value="NETWORK SERVER INPUT QUEUE" style="shape=cylinder3;whiteSpace=wrap;html=1;boundedLbl=1;backgroundOutline=1;size=15;" parent="1" vertex="1">
          <mxGeometry x="732.5" y="1185" width="70" height="100" as="geometry" />
        </mxCell>
        <mxCell id="ir3scniFZbBamXwvJh3l-43" value="Uplink Registration Request" style="text;html=1;strokeColor=none;fillColor=none;align=center;verticalAlign=middle;whiteSpace=wrap;rounded=0;" parent="1" vertex="1">
          <mxGeometry x="905" y="1140" width="60" height="30" as="geometry" />
        </mxCell>
        <mxCell id="ir3scniFZbBamXwvJh3l-46" value="&lt;div&gt;Uplink Data&lt;/div&gt;" style="text;whiteSpace=wrap;html=1;" parent="1" vertex="1">
          <mxGeometry x="990" y="1215" width="60" height="40" as="geometry" />
        </mxCell>
        <mxCell id="ir3scniFZbBamXwvJh3l-48" value="form_join" style="rounded=1;whiteSpace=wrap;html=1;fillColor=#f5f5f5;fontColor=#333333;strokeColor=#666666;" parent="1" vertex="1">
          <mxGeometry x="1140" y="1125" width="120" height="60" as="geometry" />
        </mxCell>
        <mxCell id="ir3scniFZbBamXwvJh3l-51" value="form_phypld" style="rounded=1;whiteSpace=wrap;html=1;fillColor=#f5f5f5;fontColor=#333333;strokeColor=#666666;" parent="1" vertex="1">
          <mxGeometry x="1140" y="1195" width="120" height="60" as="geometry" />
        </mxCell>
        <mxCell id="ir3scniFZbBamXwvJh3l-63" value="&amp;nbsp;" style="text;whiteSpace=wrap;html=1;" parent="1" vertex="1">
          <mxGeometry x="1490" y="1370" width="40" height="40" as="geometry" />
        </mxCell>
        <mxCell id="ir3scniFZbBamXwvJh3l-64" value="&lt;font style=&quot;font-size: 14px;&quot;&gt;&lt;b&gt;Mote emulator&lt;/b&gt;&lt;/font&gt;" style="text;html=1;strokeColor=none;fillColor=none;align=center;verticalAlign=middle;whiteSpace=wrap;rounded=0;" parent="1" vertex="1">
          <mxGeometry x="1270" y="1120" width="60" height="30" as="geometry" />
        </mxCell>
        <mxCell id="ir3scniFZbBamXwvJh3l-72" value="&amp;nbsp;" style="text;whiteSpace=wrap;html=1;" parent="1" vertex="1">
          <mxGeometry x="230" y="940" width="40" height="40" as="geometry" />
        </mxCell>
        <mxCell id="ir3scniFZbBamXwvJh3l-73" value="&amp;nbsp;" style="text;whiteSpace=wrap;html=1;" parent="1" vertex="1">
          <mxGeometry x="1690" y="990" width="40" height="40" as="geometry" />
        </mxCell>
        <mxCell id="ir3scniFZbBamXwvJh3l-81" style="edgeStyle=orthogonalEdgeStyle;rounded=0;orthogonalLoop=1;jettySize=auto;html=1;exitX=1;exitY=0.5;exitDx=0;exitDy=0;entryX=0;entryY=0.5;entryDx=0;entryDy=0;" parent="1" source="ir3scniFZbBamXwvJh3l-76" target="ir3scniFZbBamXwvJh3l-48" edge="1">
          <mxGeometry relative="1" as="geometry" />
        </mxCell>
        <mxCell id="ir3scniFZbBamXwvJh3l-76" value="&lt;div&gt;&lt;br&gt;&lt;/div&gt;&lt;div&gt;-create Mote class for the new node&lt;br&gt;&lt;/div&gt;&lt;div&gt;-update End node parameters dictionary&lt;br&gt;&lt;/div&gt;&lt;div&gt;&lt;br&gt;&lt;/div&gt;" style="rounded=0;whiteSpace=wrap;html=1;" parent="1" vertex="1">
          <mxGeometry x="990" y="1120" width="120" height="70" as="geometry" />
        </mxCell>
        <mxCell id="ir3scniFZbBamXwvJh3l-78" style="edgeStyle=orthogonalEdgeStyle;rounded=0;orthogonalLoop=1;jettySize=auto;html=1;exitX=1;exitY=0.75;exitDx=0;exitDy=0;entryX=0;entryY=0.5;entryDx=0;entryDy=0;" parent="1" source="ir3scniFZbBamXwvJh3l-77" target="ir3scniFZbBamXwvJh3l-51" edge="1">
          <mxGeometry relative="1" as="geometry" />
        </mxCell>
        <mxCell id="ir3scniFZbBamXwvJh3l-82" style="edgeStyle=orthogonalEdgeStyle;rounded=0;orthogonalLoop=1;jettySize=auto;html=1;exitX=1;exitY=0.25;exitDx=0;exitDy=0;entryX=0;entryY=0.5;entryDx=0;entryDy=0;" parent="1" source="ir3scniFZbBamXwvJh3l-77" target="ir3scniFZbBamXwvJh3l-76" edge="1">
          <mxGeometry relative="1" as="geometry" />
        </mxCell>
        <mxCell id="ir3scniFZbBamXwvJh3l-77" value="NSQueueCheck" style="rounded=1;whiteSpace=wrap;html=1;fillColor=#f5f5f5;fontColor=#333333;strokeColor=#666666;" parent="1" vertex="1">
          <mxGeometry x="830" y="1205" width="120" height="60" as="geometry" />
        </mxCell>
        <mxCell id="ir3scniFZbBamXwvJh3l-85" value="&amp;nbsp;" style="text;whiteSpace=wrap;html=1;" parent="1" vertex="1">
          <mxGeometry x="820" y="1270" width="40" height="40" as="geometry" />
        </mxCell>
        <mxCell id="ir3scniFZbBamXwvJh3l-123" value="&amp;nbsp;" style="text;whiteSpace=wrap;html=1;" parent="1" vertex="1">
          <mxGeometry x="580" y="1830" width="40" height="40" as="geometry" />
        </mxCell>
        <mxCell id="tfgUsdt2ixnzsKASo8Zw-9" value="&amp;nbsp;" style="text;whiteSpace=wrap;html=1;" parent="1" vertex="1">
          <mxGeometry x="-190" y="1310" width="40" height="40" as="geometry" />
        </mxCell>
        <mxCell id="tfgUsdt2ixnzsKASo8Zw-13" value="&amp;nbsp;" style="text;whiteSpace=wrap;html=1;" parent="1" vertex="1">
          <mxGeometry x="860" y="1410" width="40" height="40" as="geometry" />
        </mxCell>
        <mxCell id="tfgUsdt2ixnzsKASo8Zw-14" value="&amp;nbsp;" style="text;whiteSpace=wrap;html=1;" parent="1" vertex="1">
          <mxGeometry x="1900" y="1450" width="40" height="40" as="geometry" />
        </mxCell>
        <mxCell id="tfgUsdt2ixnzsKASo8Zw-16" value="&amp;nbsp;" style="text;whiteSpace=wrap;html=1;" parent="1" vertex="1">
          <mxGeometry x="1510" y="1470" width="40" height="40" as="geometry" />
        </mxCell>
        <mxCell id="tfgUsdt2ixnzsKASo8Zw-20" value="&amp;nbsp;" style="text;whiteSpace=wrap;html=1;" parent="1" vertex="1">
          <mxGeometry x="270" y="750" width="40" height="40" as="geometry" />
        </mxCell>
      </root>
    </mxGraphModel>
  </diagram>
</mxfile>
